<svg width="18" height="18" viewBox="0 0 18 18" fill="none" xmlns="http://www.w3.org/2000/svg">
<path fill-rule="evenodd" clip-rule="evenodd" d="M1.5 3C1.5 2.58579 1.83579 2.25 2.25 2.25H2.57884C3.61129 2.25 4.51125 2.95267 4.76166 3.95429L4.89808 4.5H13.8801C15.3195 4.5 16.3888 5.83294 16.0765 7.23809L15.2432 10.9881C15.0144 12.0176 14.1013 12.75 13.0467 12.75H7.17116C6.13871 12.75 5.23875 12.0473 4.98834 11.0457L3.30644 4.3181C3.22297 3.98422 2.92299 3.75 2.57884 3.75H2.25C1.83579 3.75 1.5 3.41421 1.5 3ZM5.27308 6L6.44356 10.6819C6.52703 11.0158 6.82701 11.25 7.17116 11.25H13.0467C13.3983 11.25 13.7026 11.0059 13.7789 10.6627L14.6122 6.9127C14.7163 6.44431 14.3599 6 13.8801 6H5.27308Z" fill="white"/>
<path fill-rule="evenodd" clip-rule="evenodd" d="M7.125 15.75C7.74632 15.75 8.25 15.2463 8.25 14.625C8.25 14.0037 7.74632 13.5 7.125 13.5C6.50368 13.5 6 14.0037 6 14.625C6 15.2463 6.50368 15.75 7.125 15.75Z" fill="white"/>
<path fill-rule="evenodd" clip-rule="evenodd" d="M13.125 15.75C13.7463 15.75 14.25 15.2463 14.25 14.625C14.25 14.0037 13.7463 13.5 13.125 13.5C12.5037 13.5 12 14.0037 12 14.625C12 15.2463 12.5037 15.75 13.125 15.75Z" fill="white"/>
</svg>
