<svg width="18" height="18" viewBox="0 0 18 18" fill="none" xmlns="http://www.w3.org/2000/svg">
<path fill-rule="evenodd" clip-rule="evenodd" d="M5.25 6.75C6.07843 6.75 6.75 6.07843 6.75 5.25C6.75 4.42157 6.07843 3.75 5.25 3.75C4.42157 3.75 3.75 4.42157 3.75 5.25C3.75 6.07843 4.42157 6.75 5.25 6.75ZM5.25 8.25C6.90685 8.25 8.25 6.90685 8.25 5.25C8.25 3.59315 6.90685 2.25 5.25 2.25C3.59315 2.25 2.25 3.59315 2.25 5.25C2.25 6.90685 3.59315 8.25 5.25 8.25Z" fill="#2578FF"/>
<path fill-rule="evenodd" clip-rule="evenodd" d="M12.75 14.25C13.5784 14.25 14.25 13.5784 14.25 12.75C14.25 11.9216 13.5784 11.25 12.75 11.25C11.9216 11.25 11.25 11.9216 11.25 12.75C11.25 13.5784 11.9216 14.25 12.75 14.25ZM12.75 15.75C14.4069 15.75 15.75 14.4069 15.75 12.75C15.75 11.0931 14.4069 9.75 12.75 9.75C11.0931 9.75 9.75 11.0931 9.75 12.75C9.75 14.4069 11.0931 15.75 12.75 15.75Z" fill="#2578FF"/>
<path fill-rule="evenodd" clip-rule="evenodd" d="M13.95 2.40004C14.2814 2.64857 14.3486 3.11867 14.1 3.45004L5.10004 15.45C4.85152 15.7814 4.38142 15.8486 4.05004 15.6C3.71867 15.3515 3.65152 14.8814 3.90004 14.55L12.9 2.55004C13.1486 2.21867 13.6187 2.15152 13.95 2.40004Z" fill="#2578FF"/>
</svg>
