<svg width="53" height="53" viewBox="0 0 53 53" fill="none" xmlns="http://www.w3.org/2000/svg">
<path fill-rule="evenodd" clip-rule="evenodd" d="M26.5003 44.1666C36.2574 44.1666 44.167 36.257 44.167 26.5C44.167 16.7429 36.2574 8.83329 26.5003 8.83329C16.7433 8.83329 8.83366 16.7429 8.83366 26.5C8.83366 36.257 16.7433 44.1666 26.5003 44.1666ZM26.5003 48.5833C38.6966 48.5833 48.5837 38.6962 48.5837 26.5C48.5837 14.3037 38.6966 4.41663 26.5003 4.41663C14.304 4.41663 4.41699 14.3037 4.41699 26.5C4.41699 38.6962 14.304 48.5833 26.5003 48.5833Z" fill="#909AAB"/>
<path fill-rule="evenodd" clip-rule="evenodd" d="M26.5003 13.25C27.72 13.25 28.7087 14.2387 28.7087 15.4583V25.5853L33.5827 30.4593C34.4451 31.3217 34.4451 32.72 33.5827 33.5824C32.7203 34.4448 31.322 34.4448 30.4596 33.5824L25.5856 28.7083C24.7573 27.88 24.292 26.7567 24.292 25.5853V15.4583C24.292 14.2387 25.2807 13.25 26.5003 13.25Z" fill="#909AAB"/>
</svg>
