<svg width="54" height="54" viewBox="0 0 54 54" fill="none" xmlns="http://www.w3.org/2000/svg">
<path d="M21.841 18.659C20.9623 17.7803 19.5377 17.7803 18.659 18.659C17.7803 19.5377 17.7803 20.9623 18.659 21.841L23.8181 27.0001L18.6591 32.1591C17.7804 33.0378 17.7804 34.4624 18.6591 35.3411C19.5378 36.2197 20.9624 36.2197 21.8411 35.3411L27.0001 30.1821L32.159 35.341C33.0377 36.2197 34.4623 36.2197 35.341 35.341C36.2197 34.4623 36.2197 33.0377 35.341 32.159L30.182 27.0001L35.3411 21.8411C36.2197 20.9624 36.2197 19.5378 35.3411 18.6591C34.4624 17.7804 33.0378 17.7804 32.1591 18.6591L27.0001 23.8181L21.841 18.659Z" fill="#909AAB"/>
<path fill-rule="evenodd" clip-rule="evenodd" d="M27 45C36.9411 45 45 36.9411 45 27C45 17.0589 36.9411 9 27 9C17.0589 9 9 17.0589 9 27C9 36.9411 17.0589 45 27 45ZM27 49.5C39.4264 49.5 49.5 39.4264 49.5 27C49.5 14.5736 39.4264 4.5 27 4.5C14.5736 4.5 4.5 14.5736 4.5 27C4.5 39.4264 14.5736 49.5 27 49.5Z" fill="#909AAB"/>
</svg>
