<svg width="16" height="16" viewBox="0 0 16 16" fill="none" xmlns="http://www.w3.org/2000/svg">
<path fill-rule="evenodd" clip-rule="evenodd" d="M4.6665 5.99998C4.6665 5.63179 4.96498 5.33331 5.33317 5.33331H10.6665C11.0347 5.33331 11.3332 5.63179 11.3332 5.99998C11.3332 6.36817 11.0347 6.66665 10.6665 6.66665H5.33317C4.96498 6.66665 4.6665 6.36817 4.6665 5.99998Z" fill="#909AAB"/>
<path fill-rule="evenodd" clip-rule="evenodd" d="M4.6665 8.66667C4.6665 8.29848 4.96498 8 5.33317 8H7.99984C8.36803 8 8.6665 8.29848 8.6665 8.66667C8.6665 9.03486 8.36803 9.33333 7.99984 9.33333H5.33317C4.96498 9.33333 4.6665 9.03486 4.6665 8.66667Z" fill="#909AAB"/>
<path fill-rule="evenodd" clip-rule="evenodd" d="M4.47992 11.6424C4.71954 11.4427 5.02158 11.3333 5.3335 11.3333H12.6668C13.035 11.3333 13.3335 11.0349 13.3335 10.6667V4C13.3335 3.63181 13.035 3.33333 12.6668 3.33333H3.3335C2.96531 3.33333 2.66683 3.63181 2.66683 4V13.1533L4.47992 11.6424ZM5.3335 12.6667H12.6668C13.7714 12.6667 14.6668 11.7712 14.6668 10.6667V4C14.6668 2.89543 13.7714 2 12.6668 2H3.3335C2.22893 2 1.3335 2.89543 1.3335 4V13.1533C1.3335 14.2837 2.65197 14.9013 3.52041 14.1776L5.3335 12.6667Z" fill="#909AAB"/>
</svg>
