<svg width="26" height="26" viewBox="0 0 26 26" fill="none" xmlns="http://www.w3.org/2000/svg">
<circle cx="13" cy="13" r="13" fill="#F8F9FC"/>
<path d="M15.4609 7.64062C13.8778 7.64062 12.5898 8.92857 12.5898 10.5117C12.5898 12.0948 13.8778 13.3827 15.4609 13.3827C17.0441 13.3827 18.332 12.0948 18.332 10.5117C18.332 8.92857 17.0441 7.64062 15.4609 7.64062ZM15.9941 11.3306C15.9941 11.5571 15.8105 11.7407 15.584 11.7407C15.3575 11.7407 15.1738 11.5571 15.1738 11.3306V10.2397C15.1711 10.2388 14.8803 10.2457 14.7847 9.95913C14.7131 9.74423 14.8292 9.51195 15.0441 9.44031L15.4543 9.30359C15.7199 9.21516 15.9942 9.4131 15.9942 9.69269V11.3306H15.9941Z" fill="#2578FF"/>
<path d="M15.4628 7.25915C15.6893 7.25915 15.8729 7.07551 15.8729 6.849V6.41016C15.8729 6.18364 15.6893 6 15.4628 6C15.2362 6 15.0526 6.18364 15.0526 6.41016V6.849C15.0526 7.07551 15.2362 7.25915 15.4628 7.25915Z" fill="#2578FF"/>
<path d="M12.5427 8.22581C12.7029 8.38596 12.9626 8.38599 13.1227 8.22581C13.2829 8.06563 13.2829 7.80594 13.1227 7.64579L12.8124 7.33547C12.6523 7.17529 12.3926 7.17529 12.2324 7.33547C12.0722 7.49565 12.0722 7.75533 12.2324 7.91548L12.5427 8.22581Z" fill="#2578FF"/>
<path d="M18.376 12.9068C18.2158 12.7466 17.9561 12.7466 17.7959 12.9068C17.6357 13.0669 17.6357 13.3266 17.7959 13.4868L18.1062 13.7971C18.2664 13.9572 18.5261 13.9573 18.6863 13.7971C18.8465 13.6369 18.8465 13.3772 18.6863 13.2171L18.376 12.9068Z" fill="#2578FF"/>
<path d="M19.5894 10.1588H19.1505C18.924 10.1588 18.7404 10.3425 18.7404 10.569C18.7404 10.7955 18.924 10.9791 19.1505 10.9791H19.5894C19.8159 10.9791 19.9996 10.7955 19.9996 10.569C19.9996 10.3425 19.8159 10.1588 19.5894 10.1588Z" fill="#2578FF"/>
<path d="M18.3796 8.22971L18.6899 7.91939C18.8501 7.75921 18.8501 7.49953 18.6899 7.33937C18.5298 7.17919 18.2701 7.17919 18.1099 7.33937L17.7996 7.6497C17.6394 7.80988 17.6394 8.06956 17.7996 8.22971C17.9597 8.38986 18.2195 8.38989 18.3796 8.22971Z" fill="#2578FF"/>
<path d="M13.1775 13.41H7.94004C7.71352 13.41 7.52988 13.2263 7.52988 12.9998C7.52988 12.7733 7.71352 12.5897 7.94004 12.5897H12.4117C11.9246 11.8773 11.7036 11.0222 11.7867 10.1561H8.05078C6.91998 10.1561 6 11.0761 6 12.2069V15.5427C6 16.5422 6.71879 17.377 7.6666 17.5573V19.5895C7.6666 19.9534 8.1053 20.1352 8.36351 19.8827L10.7049 17.5934H13.8189C14.9497 17.5934 15.8697 16.6735 15.8697 15.5427V14.1801C14.8988 14.2876 13.9388 14.011 13.1775 13.41ZM13.4088 15.0505H7.94004C7.71352 15.0505 7.52988 14.8669 7.52988 14.6404C7.52988 14.4139 7.71352 14.2302 7.94004 14.2302H13.4088C13.6353 14.2302 13.8189 14.4139 13.8189 14.6404C13.8189 14.8669 13.6353 15.0505 13.4088 15.0505Z" fill="#2578FF"/>
</svg>
