<svg width="22" height="22" viewBox="0 0 22 22" fill="none" xmlns="http://www.w3.org/2000/svg">
<path d="M5.5 4.58333H12.8333C13.3396 4.58333 13.75 4.99374 13.75 5.5V6.41667H15.5833V5.5C15.5833 3.98122 14.3521 2.75 12.8333 2.75H5.5C3.98122 2.75 2.75 3.98122 2.75 5.5V12.8333C2.75 14.3521 3.98122 15.5833 5.5 15.5833H6.41667V13.75H5.5C4.99374 13.75 4.58333 13.3396 4.58333 12.8333V5.5C4.58333 4.99374 4.99374 4.58333 5.5 4.58333Z" fill="#2578FF"/>
<path fill-rule="evenodd" clip-rule="evenodd" d="M16.4998 8.25002H9.1665C8.66024 8.25002 8.24984 8.66043 8.24984 9.16669V16.5C8.24984 17.0063 8.66024 17.4167 9.1665 17.4167H16.4998C17.0061 17.4167 17.4165 17.0063 17.4165 16.5V9.16669C17.4165 8.66043 17.0061 8.25002 16.4998 8.25002ZM9.1665 6.41669C7.64772 6.41669 6.4165 7.6479 6.4165 9.16669V16.5C6.4165 18.0188 7.64772 19.25 9.1665 19.25H16.4998C18.0186 19.25 19.2498 18.0188 19.2498 16.5V9.16669C19.2498 7.6479 18.0186 6.41669 16.4998 6.41669H9.1665Z" fill="#2578FF"/>
</svg>
