<svg width="16" height="16" viewBox="0 0 16 16" fill="none" xmlns="http://www.w3.org/2000/svg">
<path fill-rule="evenodd" clip-rule="evenodd" d="M8 2C4.68629 2 2 4.68629 2 8C2 11.3137 4.68629 14 8 14C8.95925 14 9.8639 13.7754 10.6662 13.3767C11.0372 13.1924 11.4873 13.3437 11.6716 13.7146C11.856 14.0855 11.7047 14.5357 11.3338 14.72C10.3287 15.2195 9.19602 15.5 8 15.5C3.85786 15.5 0.5 12.1421 0.5 8C0.5 3.85786 3.85786 0.5 8 0.5C12.1421 0.5 15.5 3.85786 15.5 8V8.75C15.5 9.80675 15.2355 10.6515 14.7402 11.2458C14.2375 11.849 13.5525 12.125 12.875 12.125C11.9548 12.125 11.0243 11.6067 10.5576 10.7425C9.88764 11.3675 8.98848 11.75 8 11.75C5.92893 11.75 4.25 10.0711 4.25 8C4.25 5.92893 5.92893 4.25 8 4.25C8.84421 4.25 9.62326 4.52896 10.25 4.99973C10.2501 4.58564 10.5859 4.25 11 4.25C11.4142 4.25 11.75 4.58579 11.75 5V8V9.5C11.75 10.1629 12.3021 10.625 12.875 10.625C13.135 10.625 13.3875 10.526 13.5879 10.2855C13.7958 10.0361 14 9.56825 14 8.75V8C14 4.68629 11.3137 2 8 2ZM10.25 8C10.25 6.75736 9.24264 5.75 8 5.75C6.75736 5.75 5.75 6.75736 5.75 8C5.75 9.24264 6.75736 10.25 8 10.25C9.24264 10.25 10.25 9.24264 10.25 8Z" fill="black"/>
</svg>
