<svg width="25" height="25" viewBox="0 0 25 25" fill="none" xmlns="http://www.w3.org/2000/svg">
<path d="M12.5002 1.04169C13.0755 1.04169 13.5418 1.50806 13.5418 2.08335V3.12502H15.6252C17.9263 3.12502 19.7918 4.9905 19.7918 7.29169V8.33335C19.7918 8.90865 19.3255 9.37502 18.7502 9.37502C18.1749 9.37502 17.7085 8.90865 17.7085 8.33335V7.29169C17.7085 6.14109 16.7758 5.20835 15.6252 5.20835H9.37516C8.22457 5.20835 7.29183 6.14109 7.29183 7.29169V7.41352C7.29183 8.75862 8.15255 9.9528 9.42862 10.3782L16.2305 12.6455C18.3573 13.3544 19.7918 15.3447 19.7918 17.5865V17.7084C19.7918 20.0095 17.9263 21.875 15.6252 21.875H13.5418V22.9167C13.5418 23.492 13.0755 23.9584 12.5002 23.9584C11.9249 23.9584 11.4585 23.492 11.4585 22.9167V21.875H9.37516C7.07398 21.875 5.2085 20.0095 5.2085 17.7084V16.6667C5.2085 16.0914 5.67487 15.625 6.25016 15.625C6.82546 15.625 7.29183 16.0914 7.29183 16.6667V17.7084C7.29183 18.8589 8.22457 19.7917 9.37516 19.7917H15.6252C16.7758 19.7917 17.7085 18.8589 17.7085 17.7084V17.5865C17.7085 16.2414 16.8478 15.0472 15.5717 14.6219L8.76981 12.3546C6.64303 11.6457 5.2085 9.65535 5.2085 7.41352V7.29169C5.2085 4.9905 7.07398 3.12502 9.37516 3.12502H11.4585V2.08335C11.4585 1.50806 11.9249 1.04169 12.5002 1.04169Z" fill="black"/>
<path d="M12.5002 1.04169C13.0755 1.04169 13.5418 1.50806 13.5418 2.08335V3.12502H15.6252C17.9263 3.12502 19.7918 4.9905 19.7918 7.29169V8.33335C19.7918 8.90865 19.3255 9.37502 18.7502 9.37502C18.1749 9.37502 17.7085 8.90865 17.7085 8.33335V7.29169C17.7085 6.14109 16.7758 5.20835 15.6252 5.20835H9.37516C8.22457 5.20835 7.29183 6.14109 7.29183 7.29169V7.41352C7.29183 8.75862 8.15255 9.9528 9.42862 10.3782L16.2305 12.6455C18.3573 13.3544 19.7918 15.3447 19.7918 17.5865V17.7084C19.7918 20.0095 17.9263 21.875 15.6252 21.875H13.5418V22.9167C13.5418 23.492 13.0755 23.9584 12.5002 23.9584C11.9249 23.9584 11.4585 23.492 11.4585 22.9167V21.875H9.37516C7.07398 21.875 5.2085 20.0095 5.2085 17.7084V16.6667C5.2085 16.0914 5.67487 15.625 6.25016 15.625C6.82546 15.625 7.29183 16.0914 7.29183 16.6667V17.7084C7.29183 18.8589 8.22457 19.7917 9.37516 19.7917H15.6252C16.7758 19.7917 17.7085 18.8589 17.7085 17.7084V17.5865C17.7085 16.2414 16.8478 15.0472 15.5717 14.6219L8.76981 12.3546C6.64303 11.6457 5.2085 9.65535 5.2085 7.41352V7.29169C5.2085 4.9905 7.07398 3.12502 9.37516 3.12502H11.4585V2.08335C11.4585 1.50806 11.9249 1.04169 12.5002 1.04169Z" fill="#2578FF"/>
</svg>
