<svg width="18" height="18" viewBox="0 0 18 18" fill="none" xmlns="http://www.w3.org/2000/svg">
<path fill-rule="evenodd" clip-rule="evenodd" d="M10.9018 2.85579C11.7804 1.97711 13.2051 1.97711 14.0837 2.85579L15.1444 3.91645C16.0231 4.79513 16.0231 6.21975 15.1444 7.09843L7.35002 14.8928C7.24532 14.9975 7.11197 15.0689 6.96678 15.0979L2.9893 15.8934C2.46451 15.9984 2.00182 15.5357 2.10678 15.0109L2.90227 11.0334C2.93131 10.8882 3.00268 10.7549 3.10738 10.6502L10.9018 2.85579ZM13.0231 3.91645L14.0837 4.97711C14.3766 5.27 14.3766 5.74487 14.0837 6.03777L13.0231 7.09843L10.9018 4.97711L11.9624 3.91645C12.2553 3.62355 12.7302 3.62355 13.0231 3.91645ZM9.8411 6.03777L4.32861 11.5503L3.79828 14.2019L6.44993 13.6716L11.9624 8.15909L9.8411 6.03777Z" fill="#2578FF"/>
</svg>
