<svg width="26" height="26" viewBox="0 0 26 26" fill="none" xmlns="http://www.w3.org/2000/svg">
<circle cx="13" cy="13" r="13" fill="#F8F9FC"/>
<path d="M16.8665 11.4496C16.786 11.3245 16.6478 11.2501 16.4999 11.2501H13.4374V6.43768C13.4374 6.23119 13.2931 6.05269 13.091 6.00982C12.8853 5.96607 12.6841 6.07194 12.6001 6.26006L9.10013 14.135C9.03976 14.2697 9.05288 14.4272 9.13338 14.5506C9.21388 14.6748 9.35213 14.7501 9.5 14.7501H12.5625V19.5625C12.5625 19.769 12.7068 19.9475 12.909 19.9904C12.9396 19.9965 12.9702 20 13 20C13.1697 20 13.3281 19.9011 13.3998 19.7401L16.8998 11.8652C16.9593 11.7296 16.9479 11.5739 16.8665 11.4496Z" fill="#2578FF"/>
</svg>
