<svg width="22" height="22" viewBox="0 0 22 22" fill="none" xmlns="http://www.w3.org/2000/svg">
<path d="M5.5 4.58333H12.8333C13.3396 4.58333 13.75 4.99374 13.75 5.5V6.41667H15.5833V5.5C15.5833 3.98122 14.3521 2.75 12.8333 2.75H5.5C3.98122 2.75 2.75 3.98122 2.75 5.5V12.8333C2.75 14.3521 3.98122 15.5833 5.5 15.5833H6.41667V13.75H5.5C4.99374 13.75 4.58333 13.3396 4.58333 12.8333V5.5C4.58333 4.99374 4.99374 4.58333 5.5 4.58333Z" fill="#A3ACBA"/>
<path fill-rule="evenodd" clip-rule="evenodd" d="M16.5001 8.25008H9.16675C8.66049 8.25008 8.25008 8.66049 8.25008 9.16675V16.5001C8.25008 17.0063 8.66049 17.4167 9.16675 17.4167H16.5001C17.0063 17.4167 17.4167 17.0063 17.4167 16.5001V9.16675C17.4167 8.66049 17.0063 8.25008 16.5001 8.25008ZM9.16675 6.41675C7.64797 6.41675 6.41675 7.64797 6.41675 9.16675V16.5001C6.41675 18.0189 7.64797 19.2501 9.16675 19.2501H16.5001C18.0189 19.2501 19.2501 18.0189 19.2501 16.5001V9.16675C19.2501 7.64797 18.0189 6.41675 16.5001 6.41675H9.16675Z" fill="#A3ACBA"/>
</svg>
