<svg width="16" height="16" viewBox="0 0 16 16" fill="none" xmlns="http://www.w3.org/2000/svg">
<path fill-rule="evenodd" clip-rule="evenodd" d="M6.9153 4.40957C5.94337 3.41901 4.3729 3.41901 3.40097 4.40957C2.42212 5.40718 2.42212 7.02979 3.40097 8.0274L7.5243 12.2298C7.78564 12.4961 8.21469 12.4961 8.47602 12.2298L12.5994 8.0274C13.5782 7.02979 13.5782 5.40718 12.5994 4.40957C11.6274 3.41901 10.057 3.41901 9.08503 4.40957L8.47602 5.03025C8.35065 5.15802 8.17917 5.23001 8.00016 5.23001C7.82116 5.23 7.64967 5.15802 7.5243 5.03025L6.9153 4.40957ZM7.86702 3.47575L8.00016 3.61145L8.13331 3.47575C9.62791 1.9525 12.0565 1.9525 13.5511 3.47575C15.0387 4.99194 15.0387 7.44503 13.5511 8.96122L9.42774 13.1636C8.64373 13.9626 7.35659 13.9626 6.57259 13.1636L2.44925 8.96122C0.961577 7.44503 0.961577 4.99194 2.44925 3.47575C3.94385 1.9525 6.37242 1.9525 7.86702 3.47575Z" fill="#909AAB"/>
</svg>
