<svg width="180" height="63" viewBox="0 0 180 63" fill="none" xmlns="http://www.w3.org/2000/svg">
<path d="M75.0402 41V39.08H74.8802C74.4962 39.5493 74.1015 39.9227 73.6962 40.2C72.7575 40.9467 71.6055 41.32 70.2402 41.32C68.8108 41.32 67.6482 40.904 66.7522 40.072C65.8775 39.2187 65.4402 38.1413 65.4402 36.84C65.4402 35.56 65.8455 34.472 66.6562 33.576C67.4882 32.6587 68.6295 32.072 70.0802 31.816L75.0402 30.92C74.9548 30.3227 74.6775 29.832 74.2082 29.448C73.7388 29.0427 73.1095 28.84 72.3202 28.84C71.3388 28.84 70.4748 29.1387 69.7282 29.736C69.3442 30.0133 69.0348 30.3013 68.8002 30.6L66.2402 28.04C66.7095 27.464 67.2535 26.9627 67.8722 26.536C69.3655 25.512 70.9548 25 72.6402 25C74.6028 25 76.2135 25.5973 77.4722 26.792C78.7308 27.9867 79.3602 29.4693 79.3602 31.24V41H75.0402ZM75.0402 34.28V33.96L71.5202 34.6C70.3468 34.8347 69.7602 35.368 69.7602 36.2C69.7602 37.2667 70.4002 37.8 71.6802 37.8C72.6402 37.8 73.4402 37.4693 74.0802 36.808C74.7202 36.1467 75.0402 35.304 75.0402 34.28ZM84.4889 35.56V29.64H81.7689V25.64H83.2089C84.3822 25.64 84.9689 25 84.9689 23.72V20.84H88.8089V25.64H92.3289V29.64H88.8089V34.92C88.8089 35.624 88.9902 36.1787 89.3529 36.584C89.7369 36.968 90.2489 37.16 90.8889 37.16C91.3369 37.16 91.7529 37.1067 92.1369 37C92.2649 36.9787 92.4356 36.9253 92.6489 36.84V40.84C92.5636 40.8827 92.4249 40.936 92.2329 41C92.0409 41.0427 91.9022 41.0747 91.8169 41.096C91.2196 41.2453 90.5369 41.32 89.7689 41.32C88.1476 41.32 86.8569 40.8187 85.8969 39.816C84.9582 38.8133 84.4889 37.3947 84.4889 35.56ZM100.221 36.136C100.989 36.9253 101.938 37.32 103.069 37.32C104.2 37.32 105.149 36.9253 105.917 36.136C106.685 35.3467 107.069 34.3547 107.069 33.16C107.069 31.9653 106.685 30.9733 105.917 30.184C105.149 29.3947 104.2 29 103.069 29C101.938 29 100.989 29.3947 100.221 30.184C99.4529 30.9733 99.0689 31.9653 99.0689 33.16C99.0689 34.3547 99.4529 35.3467 100.221 36.136ZM97.1809 38.92C95.5596 37.32 94.7489 35.4 94.7489 33.16C94.7489 30.92 95.5596 29 97.1809 27.4C98.8022 25.8 100.765 25 103.069 25C105.373 25 107.336 25.8 108.957 27.4C110.578 29 111.389 30.92 111.389 33.16C111.389 35.4 110.578 37.32 108.957 38.92C107.336 40.52 105.373 41.32 103.069 41.32C100.765 41.32 98.8022 40.52 97.1809 38.92ZM114.584 41V25.32H118.904V27.56H119.064C119.363 27.0693 119.704 26.6427 120.088 26.28C121.069 25.4267 122.168 25 123.384 25C124.771 25 125.965 25.4587 126.968 26.376C127.395 26.76 127.747 27.208 128.024 27.72H128.184C128.525 27.2293 128.963 26.7813 129.496 26.376C130.669 25.4587 131.939 25 133.304 25C134.883 25 136.184 25.576 137.208 26.728C138.232 27.8587 138.744 29.3627 138.744 31.24V41H134.424V31.88C134.424 30.0667 133.571 29.16 131.864 29.16C130.968 29.16 130.232 29.4587 129.656 30.056C129.101 30.632 128.824 31.4 128.824 32.36V41H124.504V31.88C124.504 30.0667 123.651 29.16 121.944 29.16C121.048 29.16 120.312 29.4587 119.736 30.056C119.181 30.632 118.904 31.4 118.904 32.36V41H114.584ZM147.408 36.136C148.176 36.9253 149.126 37.32 150.256 37.32C151.387 37.32 152.336 36.9253 153.104 36.136C153.872 35.3467 154.256 34.3547 154.256 33.16C154.256 31.9653 153.872 30.9733 153.104 30.184C152.336 29.3947 151.387 29 150.256 29C149.126 29 148.176 29.3947 147.408 30.184C146.64 30.9733 146.256 31.9653 146.256 33.16C146.256 34.3547 146.64 35.3467 147.408 36.136ZM144.368 38.92C142.747 37.32 141.936 35.4 141.936 33.16C141.936 30.92 142.747 29 144.368 27.4C145.99 25.8 147.952 25 150.256 25C152.56 25 154.523 25.8 156.144 27.4C157.766 29 158.576 30.92 158.576 33.16C158.576 35.4 157.766 37.32 156.144 38.92C154.523 40.52 152.56 41.32 150.256 41.32C147.952 41.32 145.99 40.52 144.368 38.92ZM160.171 38.44L162.731 35.72C163.009 36.04 163.382 36.3387 163.851 36.616C164.726 37.192 165.739 37.48 166.891 37.48C168.171 37.48 168.811 37.1067 168.811 36.36C168.811 35.9973 168.395 35.6453 167.563 35.304C166.731 34.9627 165.814 34.6427 164.811 34.344C163.809 34.0453 162.891 33.5013 162.059 32.712C161.227 31.9227 160.811 30.952 160.811 29.8C160.811 28.456 161.366 27.3253 162.475 26.408C163.606 25.4693 165.131 25 167.051 25C168.715 25 170.23 25.4053 171.595 26.216C172.15 26.536 172.662 26.9307 173.131 27.4L170.571 30.12C170.294 29.8853 169.985 29.672 169.643 29.48C168.897 29.0533 168.033 28.84 167.051 28.84C166.518 28.84 166.113 28.936 165.835 29.128C165.579 29.32 165.451 29.544 165.451 29.8C165.451 30.1627 165.867 30.5147 166.699 30.856C167.531 31.1973 168.449 31.5173 169.451 31.816C170.454 32.1147 171.371 32.6587 172.203 33.448C173.035 34.2373 173.451 35.208 173.451 36.36C173.451 37.768 172.875 38.952 171.723 39.912C170.571 40.8507 168.961 41.32 166.891 41.32C165.057 41.32 163.393 40.84 161.899 39.88C161.238 39.4747 160.662 38.9947 160.171 38.44Z" fill="white"/>
<path d="M75.0402 41V39.08H74.8802C74.4962 39.5493 74.1015 39.9227 73.6962 40.2C72.7575 40.9467 71.6055 41.32 70.2402 41.32C68.8108 41.32 67.6482 40.904 66.7522 40.072C65.8775 39.2187 65.4402 38.1413 65.4402 36.84C65.4402 35.56 65.8455 34.472 66.6562 33.576C67.4882 32.6587 68.6295 32.072 70.0802 31.816L75.0402 30.92C74.9548 30.3227 74.6775 29.832 74.2082 29.448C73.7388 29.0427 73.1095 28.84 72.3202 28.84C71.3388 28.84 70.4748 29.1387 69.7282 29.736C69.3442 30.0133 69.0348 30.3013 68.8002 30.6L66.2402 28.04C66.7095 27.464 67.2535 26.9627 67.8722 26.536C69.3655 25.512 70.9548 25 72.6402 25C74.6028 25 76.2135 25.5973 77.4722 26.792C78.7308 27.9867 79.3602 29.4693 79.3602 31.24V41H75.0402ZM75.0402 34.28V33.96L71.5202 34.6C70.3468 34.8347 69.7602 35.368 69.7602 36.2C69.7602 37.2667 70.4002 37.8 71.6802 37.8C72.6402 37.8 73.4402 37.4693 74.0802 36.808C74.7202 36.1467 75.0402 35.304 75.0402 34.28ZM84.4889 35.56V29.64H81.7689V25.64H83.2089C84.3822 25.64 84.9689 25 84.9689 23.72V20.84H88.8089V25.64H92.3289V29.64H88.8089V34.92C88.8089 35.624 88.9902 36.1787 89.3529 36.584C89.7369 36.968 90.2489 37.16 90.8889 37.16C91.3369 37.16 91.7529 37.1067 92.1369 37C92.2649 36.9787 92.4356 36.9253 92.6489 36.84V40.84C92.5636 40.8827 92.4249 40.936 92.2329 41C92.0409 41.0427 91.9022 41.0747 91.8169 41.096C91.2196 41.2453 90.5369 41.32 89.7689 41.32C88.1476 41.32 86.8569 40.8187 85.8969 39.816C84.9582 38.8133 84.4889 37.3947 84.4889 35.56ZM100.221 36.136C100.989 36.9253 101.938 37.32 103.069 37.32C104.2 37.32 105.149 36.9253 105.917 36.136C106.685 35.3467 107.069 34.3547 107.069 33.16C107.069 31.9653 106.685 30.9733 105.917 30.184C105.149 29.3947 104.2 29 103.069 29C101.938 29 100.989 29.3947 100.221 30.184C99.4529 30.9733 99.0689 31.9653 99.0689 33.16C99.0689 34.3547 99.4529 35.3467 100.221 36.136ZM97.1809 38.92C95.5596 37.32 94.7489 35.4 94.7489 33.16C94.7489 30.92 95.5596 29 97.1809 27.4C98.8022 25.8 100.765 25 103.069 25C105.373 25 107.336 25.8 108.957 27.4C110.578 29 111.389 30.92 111.389 33.16C111.389 35.4 110.578 37.32 108.957 38.92C107.336 40.52 105.373 41.32 103.069 41.32C100.765 41.32 98.8022 40.52 97.1809 38.92ZM114.584 41V25.32H118.904V27.56H119.064C119.363 27.0693 119.704 26.6427 120.088 26.28C121.069 25.4267 122.168 25 123.384 25C124.771 25 125.965 25.4587 126.968 26.376C127.395 26.76 127.747 27.208 128.024 27.72H128.184C128.525 27.2293 128.963 26.7813 129.496 26.376C130.669 25.4587 131.939 25 133.304 25C134.883 25 136.184 25.576 137.208 26.728C138.232 27.8587 138.744 29.3627 138.744 31.24V41H134.424V31.88C134.424 30.0667 133.571 29.16 131.864 29.16C130.968 29.16 130.232 29.4587 129.656 30.056C129.101 30.632 128.824 31.4 128.824 32.36V41H124.504V31.88C124.504 30.0667 123.651 29.16 121.944 29.16C121.048 29.16 120.312 29.4587 119.736 30.056C119.181 30.632 118.904 31.4 118.904 32.36V41H114.584ZM147.408 36.136C148.176 36.9253 149.126 37.32 150.256 37.32C151.387 37.32 152.336 36.9253 153.104 36.136C153.872 35.3467 154.256 34.3547 154.256 33.16C154.256 31.9653 153.872 30.9733 153.104 30.184C152.336 29.3947 151.387 29 150.256 29C149.126 29 148.176 29.3947 147.408 30.184C146.64 30.9733 146.256 31.9653 146.256 33.16C146.256 34.3547 146.64 35.3467 147.408 36.136ZM144.368 38.92C142.747 37.32 141.936 35.4 141.936 33.16C141.936 30.92 142.747 29 144.368 27.4C145.99 25.8 147.952 25 150.256 25C152.56 25 154.523 25.8 156.144 27.4C157.766 29 158.576 30.92 158.576 33.16C158.576 35.4 157.766 37.32 156.144 38.92C154.523 40.52 152.56 41.32 150.256 41.32C147.952 41.32 145.99 40.52 144.368 38.92ZM160.171 38.44L162.731 35.72C163.009 36.04 163.382 36.3387 163.851 36.616C164.726 37.192 165.739 37.48 166.891 37.48C168.171 37.48 168.811 37.1067 168.811 36.36C168.811 35.9973 168.395 35.6453 167.563 35.304C166.731 34.9627 165.814 34.6427 164.811 34.344C163.809 34.0453 162.891 33.5013 162.059 32.712C161.227 31.9227 160.811 30.952 160.811 29.8C160.811 28.456 161.366 27.3253 162.475 26.408C163.606 25.4693 165.131 25 167.051 25C168.715 25 170.23 25.4053 171.595 26.216C172.15 26.536 172.662 26.9307 173.131 27.4L170.571 30.12C170.294 29.8853 169.985 29.672 169.643 29.48C168.897 29.0533 168.033 28.84 167.051 28.84C166.518 28.84 166.113 28.936 165.835 29.128C165.579 29.32 165.451 29.544 165.451 29.8C165.451 30.1627 165.867 30.5147 166.699 30.856C167.531 31.1973 168.449 31.5173 169.451 31.816C170.454 32.1147 171.371 32.6587 172.203 33.448C173.035 34.2373 173.451 35.208 173.451 36.36C173.451 37.768 172.875 38.952 171.723 39.912C170.571 40.8507 168.961 41.32 166.891 41.32C165.057 41.32 163.393 40.84 161.899 39.88C161.238 39.4747 160.662 38.9947 160.171 38.44Z" fill="url(#paint0_linear)"/>
<path d="M32.9706 35.6367C35.2519 34.3196 36.036 31.3925 34.719 29.1114C33.4021 26.8304 30.4748 26.0461 28.1938 27.363C25.9127 28.68 25.1284 31.6072 26.4453 33.8883C27.7623 36.1693 30.6896 36.9537 32.9706 35.6367Z" fill="url(#paint1_linear)"/>
<path d="M32.9706 35.6367C35.2519 34.3196 36.036 31.3925 34.719 29.1114C33.4021 26.8304 30.4748 26.0461 28.1938 27.363C25.9127 28.68 25.1284 31.6072 26.4453 33.8883C27.7623 36.1693 30.6896 36.9537 32.9706 35.6367Z" fill="url(#paint2_linear)"/>
<path d="M41.6694 18.3165C42.4958 19.7477 44.3325 20.2398 45.7637 19.4135C47.1949 18.5872 47.6871 16.7505 46.8608 15.3193C46.0344 13.888 44.1977 13.3959 42.7665 14.2222C41.3353 15.0485 40.8431 16.8852 41.6694 18.3165Z" fill="black"/>
<path d="M41.6694 18.3165C42.4958 19.7477 44.3325 20.2398 45.7637 19.4135C47.1949 18.5872 47.6871 16.7505 46.8608 15.3193C46.0344 13.888 44.1977 13.3959 42.7665 14.2222C41.3353 15.0485 40.8431 16.8852 41.6694 18.3165Z" fill="url(#paint3_linear)"/>
<path d="M41.6694 18.3165C42.4958 19.7477 44.3325 20.2398 45.7637 19.4135C47.1949 18.5872 47.6871 16.7505 46.8608 15.3193C46.0344 13.888 44.1977 13.3959 42.7665 14.2222C41.3353 15.0485 40.8431 16.8852 41.6694 18.3165Z" fill="url(#paint4_linear)"/>
<path d="M41.6694 18.3165C42.4958 19.7477 44.3325 20.2398 45.7637 19.4135C47.1949 18.5872 47.6871 16.7505 46.8608 15.3193C46.0344 13.888 44.1977 13.3959 42.7665 14.2222C41.3353 15.0485 40.8431 16.8852 41.6694 18.3165Z" fill="white"/>
<path d="M41.6694 18.3165C42.4958 19.7477 44.3325 20.2398 45.7637 19.4135C47.1949 18.5872 47.6871 16.7505 46.8608 15.3193C46.0344 13.888 44.1977 13.3959 42.7665 14.2222C41.3353 15.0485 40.8431 16.8852 41.6694 18.3165Z" fill="url(#paint5_linear)"/>
<path d="M16.0547 39.8875C15.9044 40.5821 15.7799 41.2636 15.6844 41.928C14.9416 47.0822 15.975 50.7534 18.5935 52.2652C21.2117 53.7772 24.9076 52.8365 29.0001 49.616C31.5388 47.6185 34.0874 44.869 36.4315 41.6352C38.5256 41.4177 40.5309 41.083 42.3987 40.6396C42.5192 41.2142 42.6199 41.778 42.6992 42.3287C43.1317 45.3316 42.8718 47.7052 42.0092 49.0093C42.3688 50.1912 42.3324 51.4373 41.9475 52.57C42.1619 52.4825 42.3704 52.3812 42.5716 52.265C45.1901 50.7532 46.223 47.0821 45.4804 41.9279C45.3845 41.2634 45.2601 40.5819 45.1099 39.8871C45.7868 39.6699 46.4393 39.4368 47.0626 39.1876C51.897 37.2537 54.5599 34.5236 54.5599 31.5C54.5598 28.4764 51.8972 25.7459 47.0624 23.8119C44.0625 22.6119 40.4079 21.7781 36.4347 21.3649C35.1991 19.6609 33.9072 18.092 32.5897 16.6969C33.0271 16.3049 33.465 15.9359 33.9022 15.5918C36.2834 13.7181 38.4664 12.7568 40.0267 12.8492C40.4078 12.4416 40.854 12.0817 41.3619 11.7885C41.931 11.4599 42.5334 11.241 43.1448 11.1212C42.9622 10.9799 42.7714 10.8505 42.571 10.7347C40.5062 9.54239 37.7722 9.875 34.7013 11.648C33.8778 12.1235 33.0299 12.703 32.1644 13.3839C31.637 13.7991 31.1089 14.2477 30.5823 14.7253C30.056 14.2476 29.5278 13.7988 29.0002 13.384C24.9081 10.1636 21.212 9.22278 18.5939 10.7344C15.9754 12.2462 14.9421 15.9175 15.6847 21.0717C16.1458 24.2697 17.2504 27.852 18.8791 31.4998C18.0211 33.4214 17.3084 35.3247 16.7589 37.1632C16.2005 36.9803 15.6621 36.7855 15.1459 36.5791C12.3233 35.45 10.396 34.0342 9.70146 32.6321C8.54131 32.3598 7.46685 31.7347 6.65296 30.8028C6.62141 31.0335 6.60438 31.266 6.60465 31.4999C6.60436 34.5237 9.26714 37.2537 14.1021 39.188C14.7255 39.4373 15.3779 39.6702 16.0547 39.8875ZM27.2621 47.4078C24.2248 49.7981 21.5093 50.7043 19.9984 49.8318C18.4872 48.9595 17.9143 46.1547 18.4654 42.3287C18.5448 41.7784 18.645 41.2144 18.7661 40.6397C22.3195 41.4834 26.3705 41.9341 30.5824 41.9337C31.2946 41.9336 32.0021 41.9201 32.7036 41.8949C30.9388 44.0891 29.0938 45.9667 27.2621 47.4078ZM46.0187 26.4208C49.6074 27.8562 51.7499 29.7553 51.7497 31.5002C51.7498 33.2449 49.6076 35.1433 46.0186 36.5788C45.5022 36.7856 44.9636 36.9804 44.4055 37.1632C43.3598 33.6639 41.7247 29.9304 39.6188 26.2827C39.2628 25.6661 38.8974 25.0604 38.5246 24.4658C41.3069 24.8966 43.8553 25.5554 46.0187 26.4208ZM37.1853 27.6877C39.1771 31.1376 40.7197 34.6487 41.7012 37.919C38.3782 38.7044 34.5659 39.1239 30.5824 39.1238C26.5987 39.1243 22.7868 38.7049 19.4634 37.9194C20.445 34.6489 21.9877 31.1377 23.9799 27.6879C25.9716 24.2381 28.241 21.1463 30.5827 18.6612C32.9244 21.1461 35.1935 24.2378 37.1853 27.6877ZM18.4659 20.6708C17.9149 16.845 18.4877 14.0402 19.9988 13.1678C21.5096 12.2956 24.2253 13.2016 27.2627 15.592C27.7001 15.936 28.1379 16.3051 28.5753 16.6969C26.068 19.3523 23.6525 22.6353 21.5468 26.2828C21.1902 26.8997 20.8483 27.5192 20.5195 28.1395C19.5015 25.5144 18.7983 22.9778 18.4659 20.6708Z" fill="url(#paint6_linear)"/>
<path d="M12.5245 29.5783C13.956 28.7518 14.4478 26.9153 13.6215 25.484C12.7952 24.0528 10.9588 23.5605 9.52724 24.387C8.09601 25.2133 7.60386 27.05 8.43018 28.4813C9.2565 29.9125 11.0935 30.4045 12.5245 29.5783Z" fill="white"/>
<path d="M12.5245 29.5783C13.956 28.7518 14.4478 26.9153 13.6215 25.484C12.7952 24.0528 10.9588 23.5605 9.52724 24.387C8.09601 25.2133 7.60386 27.05 8.43018 28.4813C9.2565 29.9125 11.0935 30.4045 12.5245 29.5783Z" fill="url(#paint7_linear)"/>
<path d="M34.955 48.1037C33.5237 48.93 33.0316 50.7667 33.8579 52.1979C34.6842 53.6292 36.521 54.1213 37.9522 53.295C39.3834 52.4687 39.8756 50.6319 39.0492 49.2007C38.2229 47.7695 36.3862 47.2773 34.955 48.1037Z" fill="black"/>
<path d="M34.955 48.1037C33.5237 48.93 33.0316 50.7667 33.8579 52.1979C34.6842 53.6292 36.521 54.1213 37.9522 53.295C39.3834 52.4687 39.8756 50.6319 39.0492 49.2007C38.2229 47.7695 36.3862 47.2773 34.955 48.1037Z" fill="url(#paint8_linear)"/>
<path d="M34.955 48.1037C33.5237 48.93 33.0316 50.7667 33.8579 52.1979C34.6842 53.6292 36.521 54.1213 37.9522 53.295C39.3834 52.4687 39.8756 50.6319 39.0492 49.2007C38.2229 47.7695 36.3862 47.2773 34.955 48.1037Z" fill="url(#paint9_linear)"/>
<path d="M34.955 48.1037C33.5237 48.93 33.0316 50.7667 33.8579 52.1979C34.6842 53.6292 36.521 54.1213 37.9522 53.295C39.3834 52.4687 39.8756 50.6319 39.0492 49.2007C38.2229 47.7695 36.3862 47.2773 34.955 48.1037Z" fill="white"/>
<path d="M34.955 48.1037C33.5237 48.93 33.0316 50.7667 33.8579 52.1979C34.6842 53.6292 36.521 54.1213 37.9522 53.295C39.3834 52.4687 39.8756 50.6319 39.0492 49.2007C38.2229 47.7695 36.3862 47.2773 34.955 48.1037Z" fill="url(#paint10_linear)"/>
<defs>
<linearGradient id="paint0_linear" x1="64.1602" y1="29" x2="175.16" y2="29" gradientUnits="userSpaceOnUse">
<stop stop-color="#485563"/>
<stop offset="1" stop-color="#29323C"/>
</linearGradient>
<linearGradient id="paint1_linear" x1="25.2891" y1="36.4349" x2="33.6719" y2="27.3028" gradientUnits="userSpaceOnUse">
<stop stop-color="#2B9EFF"/>
<stop offset="1" stop-color="#A55BF9"/>
</linearGradient>
<linearGradient id="paint2_linear" x1="34.719" y1="29.1114" x2="26.4453" y2="33.8883" gradientUnits="userSpaceOnUse">
<stop stop-color="#485563"/>
<stop offset="1" stop-color="#29323C"/>
</linearGradient>
<linearGradient id="paint3_linear" x1="40.9439" y1="19.9144" x2="46.2038" y2="14.1844" gradientUnits="userSpaceOnUse">
<stop stop-color="#2B9EFF"/>
<stop offset="1" stop-color="#A55BF9"/>
</linearGradient>
<linearGradient id="paint4_linear" x1="45.7637" y1="19.4135" x2="42.7665" y2="14.2222" gradientUnits="userSpaceOnUse">
<stop stop-color="#F0526E"/>
<stop offset="1" stop-color="#BA56A2"/>
</linearGradient>
<linearGradient id="paint5_linear" x1="46.8608" y1="15.3193" x2="41.6694" y2="18.3165" gradientUnits="userSpaceOnUse">
<stop stop-color="#485563"/>
<stop offset="1" stop-color="#29323C"/>
</linearGradient>
<linearGradient id="paint6_linear" x1="49.1752" y1="20.7653" x2="11.9892" y2="42.2347" gradientUnits="userSpaceOnUse">
<stop stop-color="#485563"/>
<stop offset="1" stop-color="#29323C"/>
</linearGradient>
<linearGradient id="paint7_linear" x1="13.6215" y1="25.484" x2="8.43018" y2="28.4813" gradientUnits="userSpaceOnUse">
<stop stop-color="#485563"/>
<stop offset="1" stop-color="#29323C"/>
</linearGradient>
<linearGradient id="paint8_linear" x1="33.1324" y1="53.7958" x2="38.3922" y2="48.0659" gradientUnits="userSpaceOnUse">
<stop stop-color="#2B9EFF"/>
<stop offset="1" stop-color="#A55BF9"/>
</linearGradient>
<linearGradient id="paint9_linear" x1="37.9522" y1="53.295" x2="34.955" y2="48.1037" gradientUnits="userSpaceOnUse">
<stop stop-color="#F0526E"/>
<stop offset="1" stop-color="#BA56A2"/>
</linearGradient>
<linearGradient id="paint10_linear" x1="39.0492" y1="49.2007" x2="33.8579" y2="52.1979" gradientUnits="userSpaceOnUse">
<stop stop-color="#485563"/>
<stop offset="1" stop-color="#29323C"/>
</linearGradient>
</defs>
</svg>
