<svg width="24" height="24" viewBox="0 0 24 24" fill="none" xmlns="http://www.w3.org/2000/svg">
<path fill-rule="evenodd" clip-rule="evenodd" d="M2.19279 6.57834C1.36183 4.08543 3.91012 1.8046 6.29602 2.90578L20.0983 9.27607C22.422 10.3486 22.422 13.6513 20.0983 14.7238L6.29603 21.0941C3.91012 22.1952 1.36183 19.9144 2.19281 17.4215L3.68376 12.9486C3.88903 12.3328 3.88903 11.6671 3.68377 11.0513L2.19279 6.57834ZM5.4579 4.7217L19.2601 11.092C20.0347 11.4495 20.0347 12.5504 19.2601 12.9079L5.45791 19.2781C4.66261 19.6452 3.81318 18.8849 4.09017 18.054L5.58113 13.5811C5.64486 13.3899 5.69672 13.1958 5.73671 12.9999H14C14.5523 12.9999 15 12.5522 15 11.9999C15 11.4476 14.5523 10.9999 14 10.9999H5.73669C5.69671 10.804 5.64486 10.61 5.58113 10.4188L4.09016 5.94589C3.81317 5.11491 4.66261 4.35464 5.4579 4.7217Z" fill="black"/>
</svg>
