<svg width="26" height="26" viewBox="0 0 26 26" fill="none" xmlns="http://www.w3.org/2000/svg">
<circle cx="13" cy="13" r="13" fill="#F8F9FC"/>
<path fill-rule="evenodd" clip-rule="evenodd" d="M12.2461 11.4203C11.657 11.7019 11.25 12.3035 11.25 13C11.25 13.9665 12.0335 14.75 13 14.75C13.6966 14.75 14.2981 14.3431 14.5798 13.7539L12.2461 11.4203ZM13.5833 13C13.5833 13.3222 13.3222 13.5834 13 13.5834C12.6778 13.5834 12.4167 13.3222 12.4167 13C12.4167 12.6779 12.6778 12.4167 13 12.4167C13.3222 12.4167 13.5833 12.6779 13.5833 13Z" fill="#2578FF"/>
<path d="M10.3756 9.5497C8.9082 10.3071 7.97933 11.5692 7.51775 12.3389C7.27143 12.7496 7.27143 13.2504 7.51775 13.6611C8.21091 14.817 9.95794 17.0834 13 17.0834C14.5241 17.0834 15.7231 16.5145 16.6274 15.8015L15.7953 14.9694C15.0696 15.5103 14.1433 15.9167 13 15.9167C10.6013 15.9167 9.15787 14.1276 8.51829 13.0611C8.50367 13.0368 8.49967 13.0162 8.49967 13C8.49967 12.9838 8.50367 12.9633 8.51829 12.9389C8.98423 12.162 9.87683 11.0015 11.2546 10.4287L10.3756 9.5497Z" fill="#2578FF"/>
<path d="M16.6562 14.1804C17.0108 13.7877 17.2845 13.39 17.4818 13.0611C17.4964 13.0368 17.5004 13.0162 17.5004 13C17.5004 12.9838 17.4964 12.9633 17.4818 12.9389C16.8422 11.8724 15.3987 10.0834 13 10.0834C12.8559 10.0834 12.7153 10.0898 12.578 10.1022L11.5698 9.09399C12.0105 8.98119 12.4868 8.91669 13 8.91669C16.0421 8.91669 17.7892 11.1831 18.4823 12.3389C18.7286 12.7496 18.7286 13.2504 18.4823 13.6611C18.2599 14.0321 17.9289 14.5174 17.4813 15.0055L16.6562 14.1804Z" fill="#2578FF"/>
<path fill-rule="evenodd" clip-rule="evenodd" d="M7.33736 7.33754C7.56516 7.10974 7.93451 7.10974 8.16232 7.33754L18.6623 17.8375C18.8901 18.0653 18.8901 18.4347 18.6623 18.6625C18.4345 18.8903 18.0652 18.8903 17.8374 18.6625L7.33736 8.1625C7.10955 7.93469 7.10955 7.56535 7.33736 7.33754Z" fill="#2578FF"/>
</svg>
