<svg width="19" height="19" viewBox="0 0 19 19" fill="none" xmlns="http://www.w3.org/2000/svg">
<path fill-rule="evenodd" clip-rule="evenodd" d="M0.75 13.5214C0.750002 13.1882 0.885367 12.8693 1.12506 12.6378L2.02539 11.7682C2.36812 11.4371 2.56105 10.9807 2.55962 10.5042L2.55134 7.74527C2.53975 3.88529 5.66565 0.75 9.52565 0.75C13.3775 0.75 16.5 3.87252 16.5 7.72434L16.5 10.5251C16.5 10.9893 16.6844 11.4344 17.0126 11.7626L17.8876 12.6376C18.1196 12.8696 18.25 13.1844 18.25 13.5126C18.25 14.196 17.696 14.75 17.0126 14.75H13C13 16.683 11.433 18.25 9.5 18.25C7.567 18.25 6 16.683 6 14.75H1.97857C1.30005 14.75 0.75 14.2 0.75 13.5214ZM7.75 14.75C7.75 15.7165 8.5335 16.5 9.5 16.5C10.4665 16.5 11.25 15.7165 11.25 14.75H7.75ZM14.75 10.5251C14.75 11.4534 15.1187 12.3436 15.7751 13L3.26869 13C3.93694 12.3402 4.31244 11.4391 4.30961 10.4989L4.30133 7.74002C4.29265 4.84859 6.6342 2.5 9.52565 2.5C12.411 2.5 14.75 4.83902 14.75 7.72434L14.75 10.5251Z" fill="black"/>
</svg>
