<svg width="18" height="18" viewBox="0 0 18 18" fill="none" xmlns="http://www.w3.org/2000/svg">
<path fill-rule="evenodd" clip-rule="evenodd" d="M10.9015 2.85579C11.7802 1.97711 13.2048 1.97711 14.0835 2.85579L15.1442 3.91645C16.0228 4.79513 16.0228 6.21975 15.1442 7.09843L7.34978 14.8928C7.24508 14.9975 7.11173 15.0689 6.96653 15.0979L2.98906 15.8934C2.46427 15.9984 2.00158 15.5357 2.10653 15.0109L2.90203 11.0334C2.93107 10.8882 3.00243 10.7549 3.10714 10.6502L10.9015 2.85579ZM13.0228 3.91645L14.0835 4.97711C14.3764 5.27 14.3764 5.74487 14.0835 6.03777L13.0228 7.09843L10.9015 4.97711L11.9622 3.91645C12.2551 3.62355 12.7299 3.62355 13.0228 3.91645ZM9.84085 6.03777L4.32837 11.5503L3.79804 14.2019L6.44969 13.6716L11.9622 8.15909L9.84085 6.03777Z" fill="#2578FF"/>
</svg>
