<svg width="52" height="52" viewBox="0 0 52 52" fill="none" xmlns="http://www.w3.org/2000/svg">
<path d="M25.6297 25.0486C29.0709 25.0486 32.0504 23.8144 34.4855 21.3793C36.9198 18.9445 38.1544 15.9655 38.1544 12.5239C38.1544 9.08348 36.9202 6.10405 34.4851 3.66854C32.05 1.23422 29.0705 0 25.6297 0C22.1881 0 19.209 1.23422 16.7743 3.66894C14.3396 6.10366 13.105 9.08308 13.105 12.5239C13.105 15.9655 14.3396 18.9449 16.7743 21.3797C19.2098 23.814 22.1893 25.0486 25.6297 25.0486ZM18.9294 5.82357C20.7975 3.95538 22.9891 3.04727 25.6297 3.04727C28.2699 3.04727 30.4619 3.95538 32.3304 5.82357C34.1986 7.69215 35.1071 9.88408 35.1071 12.5239C35.1071 15.1645 34.1986 17.356 32.3304 19.2246C30.4619 21.0932 28.2699 22.0013 25.6297 22.0013C22.9899 22.0013 20.7983 21.0928 18.9294 19.2246C17.0608 17.3564 16.1523 15.1645 16.1523 12.5239C16.1523 9.88408 17.0608 7.69215 18.9294 5.82357Z" fill="#2578FF"/>
<path d="M47.5443 39.9853C47.4741 38.9721 47.3321 37.8668 47.123 36.6996C46.912 35.5237 46.6402 34.4121 46.3149 33.396C45.9785 32.3459 45.5218 31.3089 44.9565 30.3151C44.3705 29.2836 43.6818 28.3854 42.909 27.6463C42.1008 26.873 41.1114 26.2514 39.9672 25.7979C38.827 25.3468 37.5634 25.1183 36.2118 25.1183C35.681 25.1183 35.1676 25.3361 34.1762 25.9816C33.566 26.3795 32.8523 26.8397 32.0557 27.3487C31.3745 27.7827 30.4517 28.1894 29.3119 28.5575C28.1999 28.9174 27.0708 29.0999 25.956 29.0999C24.8419 29.0999 23.7129 28.9174 22.6 28.5575C21.4614 28.1898 20.5382 27.7831 19.8582 27.3491C19.0692 26.8449 18.355 26.3847 17.7357 25.9812C16.7451 25.3357 16.2318 25.1179 15.7009 25.1179C14.3489 25.1179 13.0857 25.3468 11.9459 25.7983C10.8025 26.251 9.81268 26.8726 9.00375 27.6467C8.23093 28.3862 7.54221 29.284 6.95663 30.3151C6.39209 31.3089 5.93506 32.3455 5.59863 33.3964C5.27371 34.4125 5.00195 35.5237 4.79089 36.6996C4.58142 37.8652 4.43979 38.9709 4.36957 39.9865C4.30054 40.9795 4.26562 42.013 4.26562 43.0572C4.26562 45.7716 5.12851 47.969 6.83008 49.5897C8.51062 51.1889 10.7339 51.9998 13.4384 51.9998H38.4767C41.1804 51.9998 43.4037 51.1889 45.0846 49.5897C46.7866 47.9702 47.6495 45.772 47.6495 43.0568C47.6491 42.009 47.6138 40.9755 47.5443 39.9853ZM42.9836 47.3819C41.8731 48.4388 40.3989 48.9525 38.4763 48.9525H13.4384C11.5154 48.9525 10.0412 48.4388 8.93115 47.3823C7.84213 46.3456 7.3129 44.9305 7.3129 43.0572C7.3129 42.0828 7.34503 41.1207 7.4093 40.1971C7.47198 39.291 7.60013 38.2956 7.79016 37.238C7.97781 36.1934 8.21664 35.2131 8.5007 34.3256C8.77325 33.4746 9.14499 32.6319 9.60599 31.8202C10.046 31.0466 10.5522 30.3829 11.1108 29.8481C11.6333 29.3478 12.2918 28.9384 13.0678 28.6313C13.7855 28.3473 14.5921 28.1918 15.4677 28.1684C15.5744 28.2251 15.7644 28.3334 16.0723 28.5341C16.6987 28.9424 17.4207 29.4081 18.219 29.9179C19.1187 30.4916 20.278 31.0097 21.663 31.4568C23.0789 31.9147 24.523 32.1471 25.9564 32.1471C27.3897 32.1471 28.8342 31.9147 30.2494 31.4572C31.6355 31.0093 32.7944 30.4916 33.6953 29.9171C34.5122 29.395 35.214 28.9428 35.8405 28.5341C36.1483 28.3338 36.3383 28.2251 36.4451 28.1684C37.321 28.1918 38.1276 28.3473 38.8457 28.6313C39.6213 28.9384 40.2798 29.3482 40.8023 29.8481C41.3609 30.3825 41.8672 31.0462 42.3071 31.8206C42.7685 32.6319 43.1407 33.475 43.4128 34.3252C43.6973 35.2138 43.9365 36.1938 44.1237 37.2376C44.3134 38.2972 44.4419 39.293 44.5046 40.1975V40.1983C44.5693 41.1183 44.6018 42.08 44.6022 43.0572C44.6018 44.9309 44.0726 46.3456 42.9836 47.3819Z" fill="#2578FF"/>
</svg>
