<svg width="52" height="52" viewBox="0 0 52 52" fill="none" xmlns="http://www.w3.org/2000/svg">
<path d="M50.6586 16.3645C48.8767 14.5824 45.9772 14.5825 44.1946 16.3649C43.6464 16.9136 40.1461 20.4168 39.6113 20.952V8.8792C39.6113 7.65842 39.1359 6.51077 38.2726 5.64759L33.9638 1.33859C33.1007 0.475313 31.9529 0 30.7321 0H4.57227C2.0522 0 0.00195312 2.05024 0.00195312 4.57031V47.4297C0.00195312 49.9498 2.0522 52 4.57227 52H35.041C37.5611 52 39.6113 49.9498 39.6113 47.4297V33.8844L50.6585 22.8279C52.4447 21.0418 52.4451 18.1507 50.6586 16.3645ZM30.4708 3.04688C30.7586 3.04688 31.3133 2.99701 31.8094 3.49304L36.1183 7.80203C36.6017 8.28557 36.5646 8.81542 36.5646 9.14062H30.4708V3.04688ZM36.5645 47.4297C36.5645 48.2697 35.8811 48.9531 35.041 48.9531H4.57227C3.73224 48.9531 3.04883 48.2697 3.04883 47.4297V4.57031C3.04883 3.73029 3.73224 3.04688 4.57227 3.04688H27.4238V10.6641C27.4238 11.5054 28.1059 12.1875 28.9473 12.1875H36.5645V24.0016C36.5645 24.0016 32.0699 28.5 32.0697 28.5001L29.9163 30.6536C29.7491 30.8208 29.623 31.0247 29.5482 31.2491L27.3937 37.7125C27.2112 38.2599 27.3536 38.8635 27.7617 39.2715C28.1703 39.6801 28.7741 39.8218 29.3207 39.6395L35.7841 37.4851C36.0085 37.4103 36.2124 37.2843 36.3796 37.117L36.5645 36.9322V47.4297ZM33.1479 31.7309L35.3023 33.8853L34.4794 34.7083L31.2478 35.7854L32.3249 32.5537L33.1479 31.7309ZM37.4564 31.7304L35.3019 29.5759C36.4492 28.4278 41.5445 23.3281 42.6251 22.2466L44.7795 24.401L37.4564 31.7304ZM48.5036 20.6739L46.9332 22.2456L44.7787 20.0912L46.3497 18.5189C46.944 17.9249 47.9103 17.925 48.5042 18.5189C49.0981 19.113 49.1012 20.0762 48.5036 20.6739Z" fill="#2578FF"/>
<path d="M28.9473 15.2344H7.61914C6.7778 15.2344 6.0957 15.9165 6.0957 16.7578C6.0957 17.5992 6.7778 18.2812 7.61914 18.2812H28.9473C29.7886 18.2812 30.4707 17.5992 30.4707 16.7578C30.4707 15.9165 29.7886 15.2344 28.9473 15.2344Z" fill="#2578FF"/>
<path d="M22.8535 21.3281H7.61914C6.7778 21.3281 6.0957 22.0102 6.0957 22.8516C6.0957 23.6929 6.7778 24.375 7.61914 24.375H22.8535C23.6949 24.375 24.377 23.6929 24.377 22.8516C24.377 22.0102 23.6949 21.3281 22.8535 21.3281Z" fill="#2578FF"/>
<path d="M22.8535 27.4219H7.61914C6.7778 27.4219 6.0957 28.104 6.0957 28.9453C6.0957 29.7867 6.7778 30.4688 7.61914 30.4688H22.8535C23.6949 30.4688 24.377 29.7867 24.377 28.9453C24.377 28.104 23.6949 27.4219 22.8535 27.4219Z" fill="#2578FF"/>
<path d="M22.8535 33.5156H7.61914C6.7778 33.5156 6.0957 34.1977 6.0957 35.0391C6.0957 35.8804 6.7778 36.5625 7.61914 36.5625H22.8535C23.6949 36.5625 24.377 35.8804 24.377 35.0391C24.377 34.1977 23.6949 33.5156 22.8535 33.5156Z" fill="#2578FF"/>
<path d="M28.9473 42.8594H19.8066C18.9653 42.8594 18.2832 43.5415 18.2832 44.3828C18.2832 45.2242 18.9653 45.9062 19.8066 45.9062H28.9473C29.7886 45.9062 30.4707 45.2242 30.4707 44.3828C30.4707 43.5415 29.7886 42.8594 28.9473 42.8594Z" fill="#2578FF"/>
</svg>
