<svg width="19" height="18" viewBox="0 0 19 18" fill="none" xmlns="http://www.w3.org/2000/svg">
<path fill-rule="evenodd" clip-rule="evenodd" d="M9 3C5.68629 3 3 5.68629 3 9C3 12.3137 5.68629 15 9 15C9.95925 15 10.8639 14.7754 11.6662 14.3767C12.0372 14.1924 12.4873 14.3437 12.6716 14.7146C12.856 15.0855 12.7047 15.5357 12.3338 15.72C11.3287 16.2195 10.196 16.5 9 16.5C4.85786 16.5 1.5 13.1421 1.5 9C1.5 4.85786 4.85786 1.5 9 1.5C13.1421 1.5 16.5 4.85786 16.5 9V9.75C16.5 10.8067 16.2355 11.6515 15.7402 12.2458C15.2375 12.849 14.5525 13.125 13.875 13.125C12.9548 13.125 12.0243 12.6067 11.5576 11.7425C10.8876 12.3675 9.98848 12.75 9 12.75C6.92893 12.75 5.25 11.0711 5.25 9C5.25 6.92893 6.92893 5.25 9 5.25C9.84421 5.25 10.6233 5.52896 11.25 5.99973C11.2501 5.58564 11.5859 5.25 12 5.25C12.4142 5.25 12.75 5.58579 12.75 6V9V10.5C12.75 11.1629 13.3021 11.625 13.875 11.625C14.135 11.625 14.3875 11.526 14.5879 11.2855C14.7958 11.0361 15 10.5683 15 9.75V9C15 5.68629 12.3137 3 9 3ZM11.25 9C11.25 7.75736 10.2426 6.75 9 6.75C7.75736 6.75 6.75 7.75736 6.75 9C6.75 10.2426 7.75736 11.25 9 11.25C10.2426 11.25 11.25 10.2426 11.25 9Z" fill="#FF0000"/>
</svg>
