<svg width="16" height="16" viewBox="0 0 16 16" fill="none" xmlns="http://www.w3.org/2000/svg">
<path d="M12.7364 3.2636C13.0879 3.61508 13.0879 4.18492 12.7364 4.5364L9.273 8L12.7364 11.4636C13.0586 11.7858 13.0854 12.2915 12.817 12.6442L12.7364 12.7364C12.3849 13.0879 11.8151 13.0879 11.4636 12.7364L8 9.273L4.5364 12.7364C4.18492 13.0879 3.61508 13.0879 3.2636 12.7364C2.91213 12.3849 2.91213 11.8151 3.2636 11.4636L6.727 8L3.2636 4.5364C2.94142 4.21421 2.91457 3.70853 3.18306 3.35577L3.2636 3.2636C3.61508 2.91213 4.18492 2.91213 4.5364 3.2636L8 6.727L11.4636 3.2636C11.8151 2.91213 12.3849 2.91213 12.7364 3.2636Z" fill="#FF0000"/>
</svg>
