<svg width="16" height="16" viewBox="0 0 16 16" fill="none" xmlns="http://www.w3.org/2000/svg">
<path d="M10.8047 1.86195C10.5444 1.6016 10.1223 1.6016 9.86193 1.86195C9.60158 2.12229 9.60158 2.5444 9.86193 2.80476L10.388 3.33079H6.66667C4.08934 3.33079 2 5.42013 2 7.99746V8.66412C2 9.03231 2.29848 9.33079 2.66667 9.33079C3.03486 9.33079 3.33333 9.03231 3.33333 8.66412V7.99746C3.33333 6.15651 4.82572 4.66412 6.66667 4.66412H10.3911L9.86192 5.1933C9.60158 5.45366 9.60158 5.87576 9.86193 6.13611C10.1223 6.39646 10.5444 6.39646 10.8047 6.1361L12.2347 4.70612C12.6252 4.3156 12.6252 3.68244 12.2347 3.29192L10.8047 1.86195Z" fill="#909AAB"/>
<path d="M9.33211 12.6667C11.9094 12.6667 13.9988 10.5773 13.9988 8.00002V7.33335C13.9988 6.96516 13.7003 6.66669 13.3321 6.66669C12.9639 6.66669 12.6654 6.96516 12.6654 7.33335V8.00002C12.6654 9.84097 11.1731 11.3334 9.33211 11.3334H5.60764L6.13685 10.8041C6.3972 10.5438 6.39719 10.1217 6.13684 9.86132C5.87649 9.60098 5.45438 9.60098 5.19403 9.86133L3.76408 11.2913C3.37356 11.6818 3.37356 12.315 3.76408 12.7055L5.19403 14.1355C5.45438 14.3958 5.87649 14.3958 6.13684 14.1355C6.39719 13.8751 6.3972 13.453 6.13685 13.1927L5.61086 12.6667H9.33211Z" fill="#909AAB"/>
</svg>
