<svg width="18" height="18" viewBox="0 0 18 18" fill="none" xmlns="http://www.w3.org/2000/svg">
<path fill-rule="evenodd" clip-rule="evenodd" d="M9.00005 12.75C12.0841 12.75 13.94 10.4498 14.7623 9.07855C14.7811 9.04722 14.7862 9.02083 14.7862 9C14.7862 8.97917 14.7811 8.95278 14.7623 8.92145C13.94 7.55025 12.0841 5.25 9.00005 5.25C5.91601 5.25 4.06012 7.55025 3.2378 8.92145C3.21901 8.95278 3.21387 8.97917 3.21387 9C3.21387 9.02083 3.21901 9.04722 3.2378 9.07855C4.06012 10.4498 5.91601 12.75 9.00005 12.75ZM16.0487 9.85002C15.1575 11.3361 12.9113 14.25 9.00005 14.25C5.08878 14.25 2.8426 11.3361 1.95139 9.85002C1.63469 9.32193 1.63469 8.67807 1.95139 8.14998C2.8426 6.66391 5.08878 3.75 9.00005 3.75C12.9113 3.75 15.1575 6.66391 16.0487 8.14998C16.3654 8.67807 16.3654 9.32193 16.0487 9.85002Z" fill="#2578FF"/>
<path fill-rule="evenodd" clip-rule="evenodd" d="M9 9.75C9.41421 9.75 9.75 9.41421 9.75 9C9.75 8.58579 9.41421 8.25 9 8.25C8.58579 8.25 8.25 8.58579 8.25 9C8.25 9.41421 8.58579 9.75 9 9.75ZM9 11.25C10.2426 11.25 11.25 10.2426 11.25 9C11.25 7.75736 10.2426 6.75 9 6.75C7.75736 6.75 6.75 7.75736 6.75 9C6.75 10.2426 7.75736 11.25 9 11.25Z" fill="#2578FF"/>
</svg>
