<svg width="53" height="53" viewBox="0 0 53 53" fill="none" xmlns="http://www.w3.org/2000/svg">
<path fill-rule="evenodd" clip-rule="evenodd" d="M18.8046 5.3094C19.667 4.447 21.0653 4.447 21.9277 5.3094L26.5004 9.88213L31.0732 5.3094C31.9356 4.447 33.3338 4.447 34.1962 5.3094C35.0586 6.17181 35.0586 7.57005 34.1962 8.43246L28.7088 13.9199V22.6757L36.2914 18.2978L38.2999 10.8018C38.6156 9.62375 39.8265 8.92463 41.0046 9.24029C42.1827 9.55596 42.8818 10.7669 42.5661 11.9449L40.8924 18.1914L47.1388 19.8651C48.3169 20.1808 49.016 21.3917 48.7004 22.5698C48.3847 23.7479 47.1738 24.447 45.9957 24.1313L38.4997 22.1228L30.9171 26.5006L38.4997 30.8785L45.9957 28.8699C47.1738 28.5543 48.3847 29.2534 48.7004 30.4315C49.016 31.6095 48.3169 32.8204 47.1388 33.1361L40.8924 34.8098L42.5661 41.0563C42.8818 42.2344 42.1827 43.4453 41.0046 43.7609C39.8265 44.0766 38.6156 43.3775 38.2999 42.1994L36.2914 34.7034L28.7088 30.3256V39.0812L34.1962 44.5687C35.0586 45.4311 35.0586 46.8293 34.1962 47.6917C33.3338 48.5541 31.9356 48.5541 31.0732 47.6917L26.5004 43.119L21.9277 47.6917C21.0653 48.5541 19.667 48.5541 18.8046 47.6917C17.9422 46.8293 17.9422 45.4311 18.8046 44.5687L24.2921 39.0812V30.3255L16.7094 34.7034L14.7008 42.1994C14.3852 43.3775 13.1743 44.0766 11.9962 43.7609C10.8181 43.4453 10.119 42.2344 10.4347 41.0563L12.1084 34.8098L5.86193 33.1361C4.68386 32.8204 3.98474 31.6095 4.3004 30.4315C4.61607 29.2534 5.82698 28.5543 7.00505 28.8699L14.501 30.8785L22.0837 26.5006L14.5011 22.1228L7.00512 24.1313C5.82705 24.447 4.61614 23.7479 4.30048 22.5698C3.98482 21.3917 4.68394 20.1808 5.86201 19.8651L12.1085 18.1914L10.4347 11.9449C10.1191 10.7669 10.8182 9.55596 11.9963 9.2403C13.1743 8.92463 14.3852 9.62375 14.7009 10.8018L16.7095 18.2978L24.2921 22.6757V13.9199L18.8046 8.43246C17.9422 7.57005 17.9422 6.17181 18.8046 5.3094Z" fill="#909AAB"/>
</svg>
