<svg width="32" height="32" viewBox="0 0 32 32" fill="none" xmlns="http://www.w3.org/2000/svg">
<path fill-rule="evenodd" clip-rule="evenodd" d="M26.6667 8.00008C26.6667 7.2637 26.0697 6.66675 25.3334 6.66675H5.33335C4.59697 6.66675 4.00002 7.2637 4.00002 8.00008C4.00002 8.73646 4.59697 9.33341 5.33335 9.33341H25.3334C26.0697 9.33341 26.6667 8.73646 26.6667 8.00008Z" fill="black"/>
<path fill-rule="evenodd" clip-rule="evenodd" d="M26.6667 16.0001C26.6667 15.2637 26.0697 14.6667 25.3334 14.6667H12C11.2636 14.6667 10.6667 15.2637 10.6667 16.0001C10.6667 16.7365 11.2636 17.3334 12 17.3334H25.3334C26.0697 17.3334 26.6667 16.7365 26.6667 16.0001Z" fill="black"/>
<path fill-rule="evenodd" clip-rule="evenodd" d="M26.6667 24.0001C26.6667 23.2637 26.0697 22.6667 25.3334 22.6667H17.3334C16.597 22.6667 16 23.2637 16 24.0001C16 24.7365 16.597 25.3334 17.3334 25.3334H25.3334C26.0697 25.3334 26.6667 24.7365 26.6667 24.0001Z" fill="black"/>
</svg>
