<svg width="26" height="26" viewBox="0 0 26 26" fill="none" xmlns="http://www.w3.org/2000/svg">
<circle cx="13" cy="13" r="13" fill="#F8F9FC"/>
<path d="M17.62 8.65508C17.4598 8.81526 17.4598 9.07497 17.6201 9.23512C18.6258 10.2406 19.1796 11.5776 19.1796 12.9999C19.1796 14.4221 18.6258 15.7592 17.6201 16.7646C17.3636 17.021 17.5443 17.465 17.91 17.465C18.0256 17.465 18.1299 17.4172 18.2045 17.3403C19.3623 16.1804 19.9999 14.6392 19.9999 12.9999C19.9999 11.3584 19.3607 9.81538 18.2 8.655C18.0398 8.49484 17.7801 8.4949 17.62 8.65508Z" fill="#2578FF"/>
<path d="M16.4606 15.6049C16.3005 15.7651 16.3005 16.0248 16.4607 16.1849C16.6209 16.3451 16.8806 16.3451 17.0408 16.1848C17.8914 15.3339 18.3598 14.2029 18.3598 13C18.3598 11.7971 17.8914 10.6661 17.0407 9.81514C16.8806 9.65493 16.6209 9.65487 16.4607 9.81503C16.3005 9.97518 16.3004 10.2349 16.4606 10.3951C17.1564 11.0911 17.5395 12.0162 17.5395 13C17.5395 13.9838 17.1564 14.9089 16.4606 15.6049Z" fill="#2578FF"/>
<path d="M15.3002 15.0246C15.4604 15.1848 15.7201 15.1849 15.8803 15.0247C16.4212 14.4842 16.7191 13.7651 16.7191 12.9999C16.7191 12.2348 16.4212 11.5157 15.8803 10.9751C15.7201 10.815 15.4604 10.8151 15.3003 10.9753C15.1401 11.1355 15.1402 11.3952 15.3004 11.5554C15.6863 11.941 15.8988 12.454 15.8988 12.9999C15.8988 13.5459 15.6863 14.0589 15.3004 14.4445C15.1402 14.6046 15.1401 14.8643 15.3002 15.0246Z" fill="#2578FF"/>
<path d="M6.41016 10.0038H8.05078V15.9959H6.41016C6.18375 15.9959 6 15.8124 6 15.5857V10.4139C6 10.1873 6.18375 10.0038 6.41016 10.0038Z" fill="#2578FF"/>
<path d="M14.3073 8.14892V17.851C14.3073 18.4408 13.6751 18.8146 13.1586 18.53L8.87109 16.1697V9.83029L13.1586 7.46998C13.6754 7.18533 14.3073 7.55939 14.3073 8.14892Z" fill="#2578FF"/>
</svg>
