<svg width="25" height="25" viewBox="0 0 25 25" fill="none" xmlns="http://www.w3.org/2000/svg">
<path fill-rule="evenodd" clip-rule="evenodd" d="M16.6668 6.25C16.0915 6.25 15.6252 6.71637 15.6252 7.29167C15.6252 7.86696 16.0915 8.33333 16.6668 8.33333H19.3604L13.5418 14.1519L10.8483 11.4583C10.0347 10.6447 8.71561 10.6447 7.90202 11.4583L2.38859 16.9718C1.9818 17.3786 1.9818 18.0381 2.38859 18.4449C2.79539 18.8517 3.45494 18.8517 3.86173 18.4449L9.37516 12.9315L12.0687 15.625C12.8823 16.4386 14.2014 16.4386 15.015 15.625L20.8335 9.80647V12.5C20.8335 13.0753 21.2999 13.5417 21.8752 13.5417C22.4505 13.5417 22.9168 13.0753 22.9168 12.5V7.29167C22.9168 6.71637 22.4505 6.25 21.8752 6.25H16.6668Z" fill="black"/>
<path fill-rule="evenodd" clip-rule="evenodd" d="M16.6668 6.25C16.0915 6.25 15.6252 6.71637 15.6252 7.29167C15.6252 7.86696 16.0915 8.33333 16.6668 8.33333H19.3604L13.5418 14.1519L10.8483 11.4583C10.0347 10.6447 8.71561 10.6447 7.90202 11.4583L2.38859 16.9718C1.9818 17.3786 1.9818 18.0381 2.38859 18.4449C2.79539 18.8517 3.45494 18.8517 3.86173 18.4449L9.37516 12.9315L12.0687 15.625C12.8823 16.4386 14.2014 16.4386 15.015 15.625L20.8335 9.80647V12.5C20.8335 13.0753 21.2999 13.5417 21.8752 13.5417C22.4505 13.5417 22.9168 13.0753 22.9168 12.5V7.29167C22.9168 6.71637 22.4505 6.25 21.8752 6.25H16.6668Z" fill="#2578FF"/>
</svg>
