<svg width="25" height="25" viewBox="0 0 25 25" fill="none" xmlns="http://www.w3.org/2000/svg">
<path fill-rule="evenodd" clip-rule="evenodd" d="M16.6668 18.75C16.0915 18.75 15.6252 18.2836 15.6252 17.7083C15.6252 17.133 16.0915 16.6667 16.6668 16.6667H19.3604L13.5418 10.8481L10.8483 13.5417C10.0347 14.3553 8.71561 14.3553 7.90202 13.5417L2.38859 8.02824C1.9818 7.62144 1.9818 6.96189 2.38859 6.5551C2.79539 6.1483 3.45494 6.1483 3.86173 6.5551L9.37516 12.0685L12.0687 9.375C12.8823 8.56141 14.2014 8.56141 15.015 9.375L20.8335 15.1935V12.5C20.8335 11.9247 21.2999 11.4583 21.8752 11.4583C22.4505 11.4583 22.9168 11.9247 22.9168 12.5V17.7083C22.9168 18.2836 22.4505 18.75 21.8752 18.75H16.6668Z" fill="black"/>
<path fill-rule="evenodd" clip-rule="evenodd" d="M16.6668 18.75C16.0915 18.75 15.6252 18.2836 15.6252 17.7083C15.6252 17.133 16.0915 16.6667 16.6668 16.6667H19.3604L13.5418 10.8481L10.8483 13.5417C10.0347 14.3553 8.71561 14.3553 7.90202 13.5417L2.38859 8.02824C1.9818 7.62144 1.9818 6.96189 2.38859 6.5551C2.79539 6.1483 3.45494 6.1483 3.86173 6.5551L9.37516 12.0685L12.0687 9.375C12.8823 8.56141 14.2014 8.56141 15.015 9.375L20.8335 15.1935V12.5C20.8335 11.9247 21.2999 11.4583 21.8752 11.4583C22.4505 11.4583 22.9168 11.9247 22.9168 12.5V17.7083C22.9168 18.2836 22.4505 18.75 21.8752 18.75H16.6668Z" fill="#2578FF"/>
</svg>
