<svg width="26" height="26" viewBox="0 0 26 26" fill="none" xmlns="http://www.w3.org/2000/svg">
<circle cx="13" cy="13" r="13" fill="#F8F9FC"/>
<path fill-rule="evenodd" clip-rule="evenodd" d="M12.9998 14.75C13.322 14.75 13.5832 14.4888 13.5832 14.1667V11.25C13.5832 10.9278 13.322 10.6667 12.9998 10.6667C12.6777 10.6667 12.4165 10.9278 12.4165 11.25V14.1667C12.4165 14.4888 12.6777 14.75 12.9998 14.75Z" fill="#2578FF"/>
<path fill-rule="evenodd" clip-rule="evenodd" d="M17.4764 16.2112L13.5068 9.2456C13.283 8.85292 12.7169 8.85292 12.4932 9.2456L8.5236 16.2112C8.30198 16.6 8.58282 17.0833 9.03041 17.0833H16.9696C17.4171 17.0833 17.698 16.6 17.4764 16.2112ZM14.5204 8.66795C13.8491 7.48991 12.1509 7.48992 11.4795 8.66795L7.50998 15.6335C6.84513 16.8002 7.68763 18.25 9.03041 18.25H16.9696C18.3123 18.25 19.1548 16.8001 18.49 15.6335L14.5204 8.66795Z" fill="#2578FF"/>
<path d="M13.5832 15.9167C13.5832 16.2389 13.322 16.5 12.9998 16.5C12.6777 16.5 12.4165 16.2389 12.4165 15.9167C12.4165 15.5945 12.6777 15.3334 12.9998 15.3334C13.322 15.3334 13.5832 15.5945 13.5832 15.9167Z" fill="#2578FF"/>
</svg>
